0
SECTION
2
HEADER
9
$ACADVER
1
AC1009
9
$INSUNITS
70
4
0
ENDSEC
0
SECTION
2
ENTITIES
0
POLYLINE
8
0
66
1
70
1
0
VERTEX
8
0
10
-24.6500
20
-10.1500
0
VERTEX
8
0
10
-24.6500
20
-4.8500
0
VERTEX
8
0
10
-21.3500
20
-4.8500
0
VERTEX
8
0
10
-21.3500
20
-10.1500
0
VERTEX
8
0
10
-24.5268
20
-10.1500
0
SEQEND
0
POLYLINE
8
0
66
1
70
1
0
VERTEX
8
0
10
-27.0000
20
-24.0000
0
VERTEX
8
0
10
-27.0000
20
-3.0000
0
VERTEX
8
0
10
-11.0000
20
-3.0000
0
VERTEX
8
0
10
-11.0000
20
-0.2000
0
VERTEX
8
0
10
-7.0000
20
-0.2000
0
VERTEX
8
0
10
-7.0000
20
-3.0000
0
VERTEX
8
0
10
-6.5000
20
-3.0000
0
VERTEX
8
0
10
-6.5000
20
-12.0000
0
VERTEX
8
0
10
6.5000
20
-12.0000
0
VERTEX
8
0
10
6.5000
20
-3.0000
0
VERTEX
8
0
10
7.0000
20
-3.0000
0
VERTEX
8
0
10
7.0000
20
-0.2000
0
VERTEX
8
0
10
11.0000
20
-0.2000
0
VERTEX
8
0
10
11.0000
20
-3.0000
0
VERTEX
8
0
10
27.0000
20
-3.0000
0
VERTEX
8
0
10
27.0000
20
-24.0000
0
VERTEX
8
0
10
26.9422
20
-24.5232
0
VERTEX
8
0
10
26.7690
20
-25.0442
0
VERTEX
8
0
10
26.4812
20
-25.5607
0
VERTEX
8
0
10
26.0800
20
-26.0706
0
VERTEX
8
0
10
25.5671
20
-26.5715
0
VERTEX
8
0
10
24.9447
20
-27.0615
0
VERTEX
8
0
10
24.2156
20
-27.5383
0
VERTEX
8
0
10
23.3827
20
-28.0000
0
VERTEX
8
0
10
22.4497
20
-28.4446
0
VERTEX
8
0
10
21.4205
20
-28.8701
0
VERTEX
8
0
10
20.2997
20
-29.2748
0
VERTEX
8
0
10
19.0919
20
-29.6569
0
VERTEX
8
0
10
17.8023
20
-30.0147
0
VERTEX
8
0
10
16.4366
20
-30.3468
0
VERTEX
8
0
10
15.0004
20
-30.6518
0
VERTEX
8
0
10
13.5000
20
-30.9282
0
VERTEX
8
0
10
11.9418
20
-31.1750
0
VERTEX
8
0
10
10.3325
20
-31.3910
0
VERTEX
8
0
10
8.6789
20
-31.5754
0
VERTEX
8
0
10
6.9881
20
-31.7274
0
VERTEX
8
0
10
5.2674
20
-31.8463
0
VERTEX
8
0
10
3.5242
20
-31.9316
0
VERTEX
8
0
10
1.7659
20
-31.9829
0
VERTEX
8
0
10
-0.0000
20
-32.0000
0
VERTEX
8
0
10
-1.7659
20
-31.9829
0
VERTEX
8
0
10
-3.5242
20
-31.9316
0
VERTEX
8
0
10
-5.2674
20
-31.8463
0
VERTEX
8
0
10
-6.9881
20
-31.7274
0
VERTEX
8
0
10
-8.6789
20
-31.5754
0
VERTEX
8
0
10
-10.3325
20
-31.3910
0
VERTEX
8
0
10
-11.9418
20
-31.1750
0
VERTEX
8
0
10
-13.5000
20
-30.9282
0
VERTEX
8
0
10
-15.0004
20
-30.6518
0
VERTEX
8
0
10
-16.4366
20
-30.3468
0
VERTEX
8
0
10
-17.8023
20
-30.0147
0
VERTEX
8
0
10
-19.0919
20
-29.6569
0
VERTEX
8
0
10
-20.2997
20
-29.2748
0
VERTEX
8
0
10
-21.4205
20
-28.8701
0
VERTEX
8
0
10
-22.4497
20
-28.4446
0
VERTEX
8
0
10
-23.3827
20
-28.0000
0
VERTEX
8
0
10
-24.2156
20
-27.5383
0
VERTEX
8
0
10
-24.9447
20
-27.0615
0
VERTEX
8
0
10
-25.5671
20
-26.5715
0
VERTEX
8
0
10
-26.0800
20
-26.0706
0
VERTEX
8
0
10
-26.4812
20
-25.5607
0
VERTEX
8
0
10
-26.7690
20
-25.0442
0
VERTEX
8
0
10
-26.9422
20
-24.5232
0
SEQEND
0
POLYLINE
8
0
66
1
70
1
0
VERTEX
8
0
10
-24.6500
20
-16.8500
0
VERTEX
8
0
10
-24.6500
20
-20.7458
0
VERTEX
8
0
10
-24.6500
20
-22.1500
0
VERTEX
8
0
10
-21.3500
20
-22.1500
0
VERTEX
8
0
10
-21.3500
20
-19.1044
0
VERTEX
8
0
10
-21.3500
20
-16.8500
0
VERTEX
8
0
10
-23.1933
20
-16.8500
0
SEQEND
0
POLYLINE
8
0
66
1
70
1
0
VERTEX
8
0
10
24.6500
20
-16.8500
0
VERTEX
8
0
10
24.6500
20
-20.7458
0
VERTEX
8
0
10
24.6500
20
-22.1500
0
VERTEX
8
0
10
21.3500
20
-22.1500
0
VERTEX
8
0
10
21.3500
20
-19.1044
0
VERTEX
8
0
10
21.3500
20
-16.8500
0
VERTEX
8
0
10
23.1933
20
-16.8500
0
SEQEND
0
POLYLINE
8
0
66
1
70
1
0
VERTEX
8
0
10
24.6500
20
-10.1500
0
VERTEX
8
0
10
24.6500
20
-4.8500
0
VERTEX
8
0
10
21.3500
20
-4.8500
0
VERTEX
8
0
10
21.3500
20
-10.1500
0
VERTEX
8
0
10
24.5268
20
-10.1500
0
SEQEND
0
POLYLINE
8
0
66
1
70
1
0
VERTEX
8
0
10
-1.7500
20
-15.9689
0
VERTEX
8
0
10
-1.8306
20
-16.0190
0
VERTEX
8
0
10
-1.9445
20
-16.0899
0
VERTEX
8
0
10
-2.1307
20
-16.2233
0
VERTEX
8
0
10
-2.3077
20
-16.3686
0
VERTEX
8
0
10
-2.4749
20
-16.5251
0
VERTEX
8
0
10
-2.6314
20
-16.6923
0
VERTEX
8
0
10
-2.7767
20
-16.8693
0
VERTEX
8
0
10
-2.9101
20
-17.0555
0
VERTEX
8
0
10
-3.0311
20
-17.2500
0
VERTEX
8
0
10
-3.1391
20
-17.4520
0
VERTEX
8
0
10
-3.2336
20
-17.6606
0
VERTEX
8
0
10
-3.3143
20
-17.8750
0
VERTEX
8
0
10
-3.3807
20
-18.0941
0
VERTEX
8
0
10
-3.4327
20
-18.3172
0
VERTEX
8
0
10
-3.4701
20
-18.5432
0
VERTEX
8
0
10
-3.4925
20
-18.7711
0
VERTEX
8
0
10
-3.5000
20
-19.0000
0
VERTEX
8
0
10
-3.4925
20
-19.2289
0
VERTEX
8
0
10
-3.4701
20
-19.4568
0
VERTEX
8
0
10
-3.4327
20
-19.6828
0
VERTEX
8
0
10
-3.3807
20
-19.9059
0
VERTEX
8
0
10
-3.3143
20
-20.1250
0
VERTEX
8
0
10
-3.2336
20
-20.3394
0
VERTEX
8
0
10
-3.1391
20
-20.5480
0
VERTEX
8
0
10
-3.0311
20
-20.7500
0
VERTEX
8
0
10
-2.9101
20
-20.9445
0
VERTEX
8
0
10
-2.7767
20
-21.1307
0
VERTEX
8
0
10
-2.6314
20
-21.3077
0
VERTEX
8
0
10
-2.4749
20
-21.4749
0
VERTEX
8
0
10
-2.3077
20
-21.6314
0
VERTEX
8
0
10
-2.1307
20
-21.7767
0
VERTEX
8
0
10
-1.9445
20
-21.9101
0
VERTEX
8
0
10
-1.7500
20
-22.0311
0
VERTEX
8
0
10
-1.5480
20
-22.1391
0
VERTEX
8
0
10
-1.3394
20
-22.2336
0
VERTEX
8
0
10
-1.1250
20
-22.3143
0
VERTEX
8
0
10
-0.9059
20
-22.3807
0
VERTEX
8
0
10
-0.6828
20
-22.4327
0
VERTEX
8
0
10
-0.4568
20
-22.4701
0
VERTEX
8
0
10
-0.2289
20
-22.4925
0
VERTEX
8
0
10
-0.0000
20
-22.5000
0
VERTEX
8
0
10
0.2289
20
-22.4925
0
VERTEX
8
0
10
0.4568
20
-22.4701
0
VERTEX
8
0
10
0.6828
20
-22.4327
0
VERTEX
8
0
10
0.9059
20
-22.3807
0
VERTEX
8
0
10
1.1250
20
-22.3143
0
VERTEX
8
0
10
1.3394
20
-22.2336
0
VERTEX
8
0
10
1.5480
20
-22.1391
0
VERTEX
8
0
10
1.7500
20
-22.0311
0
VERTEX
8
0
10
1.9445
20
-21.9101
0
VERTEX
8
0
10
2.1307
20
-21.7767
0
VERTEX
8
0
10
2.3077
20
-21.6314
0
VERTEX
8
0
10
2.4749
20
-21.4749
0
VERTEX
8
0
10
2.6314
20
-21.3077
0
VERTEX
8
0
10
2.7767
20
-21.1307
0
VERTEX
8
0
10
2.9101
20
-20.9445
0
VERTEX
8
0
10
3.0311
20
-20.7500
0
VERTEX
8
0
10
3.1391
20
-20.5480
0
VERTEX
8
0
10
3.2336
20
-20.3394
0
VERTEX
8
0
10
3.3143
20
-20.1250
0
VERTEX
8
0
10
3.3807
20
-19.9059
0
VERTEX
8
0
10
3.4327
20
-19.6828
0
VERTEX
8
0
10
3.4701
20
-19.4568
0
VERTEX
8
0
10
3.4925
20
-19.2289
0
VERTEX
8
0
10
3.4985
20
-19.0458
0
VERTEX
8
0
10
3.5000
20
-19.0000
0
VERTEX
8
0
10
3.4925
20
-18.7711
0
VERTEX
8
0
10
3.4701
20
-18.5432
0
VERTEX
8
0
10
3.4327
20
-18.3172
0
VERTEX
8
0
10
3.3807
20
-18.0941
0
VERTEX
8
0
10
3.3143
20
-17.8750
0
VERTEX
8
0
10
3.2336
20
-17.6606
0
VERTEX
8
0
10
3.1391
20
-17.4520
0
VERTEX
8
0
10
3.0311
20
-17.2500
0
VERTEX
8
0
10
2.9101
20
-17.0555
0
VERTEX
8
0
10
2.7767
20
-16.8693
0
VERTEX
8
0
10
2.6314
20
-16.6923
0
VERTEX
8
0
10
2.4749
20
-16.5251
0
VERTEX
8
0
10
2.3077
20
-16.3686
0
VERTEX
8
0
10
2.1307
20
-16.2233
0
VERTEX
8
0
10
1.9445
20
-16.0899
0
VERTEX
8
0
10
1.8306
20
-16.0190
0
VERTEX
8
0
10
1.7500
20
-15.9689
0
VERTEX
8
0
10
1.5480
20
-15.8609
0
VERTEX
8
0
10
1.3394
20
-15.7664
0
VERTEX
8
0
10
1.1250
20
-15.6857
0
VERTEX
8
0
10
0.9059
20
-15.6193
0
VERTEX
8
0
10
0.6828
20
-15.5673
0
VERTEX
8
0
10
0.4568
20
-15.5299
0
VERTEX
8
0
10
0.2289
20
-15.5075
0
VERTEX
8
0
10
0.0000
20
-15.5000
0
VERTEX
8
0
10
-0.2289
20
-15.5075
0
VERTEX
8
0
10
-0.4568
20
-15.5299
0
VERTEX
8
0
10
-0.6828
20
-15.5673
0
VERTEX
8
0
10
-0.9059
20
-15.6193
0
VERTEX
8
0
10
-1.1250
20
-15.6857
0
VERTEX
8
0
10
-1.3394
20
-15.7664
0
VERTEX
8
0
10
-1.5480
20
-15.8609
0
SEQEND
0
POLYLINE
8
0
66
1
70
1
0
VERTEX
8
0
10
16.0000
20
-19.9000
0
VERTEX
8
0
10
16.0000
20
-18.1000
0
VERTEX
8
0
10
6.0000
20
-18.1000
0
VERTEX
8
0
10
6.0000
20
-19.1448
0
VERTEX
8
0
10
6.0000
20
-19.9000
0
SEQEND
0
POLYLINE
8
0
66
1
70
1
0
VERTEX
8
0
10
-6.0000
20
-18.1000
0
VERTEX
8
0
10
-11.8286
20
-18.1000
0
VERTEX
8
0
10
-12.2238
20
-18.1000
0
VERTEX
8
0
10
-16.0000
20
-18.1000
0
VERTEX
8
0
10
-16.0000
20
-19.9000
0
VERTEX
8
0
10
-6.0000
20
-19.9000
0
SEQEND
0
ENDSEC
0
EOF
