0
SECTION
2
HEADER
9
$ACADVER
1
AC1009
9
$INSUNITS
70
4
0
ENDSEC
0
SECTION
2
ENTITIES
0
POLYLINE
8
0
66
1
70
1
0
VERTEX
8
0
10
4.6357
20
-12.1958
0
VERTEX
8
0
10
4.5110
20
-12.0439
0
VERTEX
8
0
10
4.2426
20
-11.7574
0
VERTEX
8
0
10
3.9561
20
-11.4890
0
VERTEX
8
0
10
3.6526
20
-11.2399
0
VERTEX
8
0
10
3.3334
20
-11.0112
0
VERTEX
8
0
10
3.0000
20
-10.8038
0
VERTEX
8
0
10
2.6537
20
-10.6188
0
VERTEX
8
0
10
2.2961
20
-10.4567
0
VERTEX
8
0
10
1.9286
20
-10.3184
0
VERTEX
8
0
10
1.5529
20
-10.2044
0
VERTEX
8
0
10
1.1705
20
-10.1153
0
VERTEX
8
0
10
0.7832
20
-10.0513
0
VERTEX
8
0
10
0.3924
20
-10.0128
0
VERTEX
8
0
10
0.0000
20
-10.0000
0
VERTEX
8
0
10
-0.3924
20
-10.0128
0
VERTEX
8
0
10
-0.7832
20
-10.0513
0
VERTEX
8
0
10
-1.1705
20
-10.1153
0
VERTEX
8
0
10
-1.5529
20
-10.2044
0
VERTEX
8
0
10
-1.9286
20
-10.3184
0
VERTEX
8
0
10
-2.2961
20
-10.4567
0
VERTEX
8
0
10
-2.6537
20
-10.6188
0
VERTEX
8
0
10
-3.0000
20
-10.8038
0
VERTEX
8
0
10
-3.3334
20
-11.0112
0
VERTEX
8
0
10
-3.6526
20
-11.2399
0
VERTEX
8
0
10
-3.9561
20
-11.4890
0
VERTEX
8
0
10
-4.2426
20
-11.7574
0
VERTEX
8
0
10
-4.5110
20
-12.0439
0
VERTEX
8
0
10
-4.6357
20
-12.1958
0
VERTEX
8
0
10
-4.7601
20
-12.3474
0
VERTEX
8
0
10
-4.9888
20
-12.6666
0
VERTEX
8
0
10
-5.1962
20
-13.0000
0
VERTEX
8
0
10
-5.3812
20
-13.3463
0
VERTEX
8
0
10
-5.5433
20
-13.7039
0
VERTEX
8
0
10
-5.5757
20
-13.7900
0
VERTEX
8
0
10
-5.6816
20
-14.0714
0
VERTEX
8
0
10
-5.7956
20
-14.4471
0
VERTEX
8
0
10
-5.8847
20
-14.8295
0
VERTEX
8
0
10
-5.9487
20
-15.2168
0
VERTEX
8
0
10
-5.9872
20
-15.6076
0
VERTEX
8
0
10
-6.0000
20
-16.0000
0
VERTEX
8
0
10
-5.9872
20
-16.3924
0
VERTEX
8
0
10
-5.9487
20
-16.7832
0
VERTEX
8
0
10
-5.8847
20
-17.1705
0
VERTEX
8
0
10
-5.7956
20
-17.5529
0
VERTEX
8
0
10
-5.6816
20
-17.9286
0
VERTEX
8
0
10
-5.5433
20
-18.2961
0
VERTEX
8
0
10
-5.3812
20
-18.6537
0
VERTEX
8
0
10
-5.1962
20
-19.0000
0
VERTEX
8
0
10
-4.9888
20
-19.3334
0
VERTEX
8
0
10
-4.7601
20
-19.6526
0
VERTEX
8
0
10
-4.5110
20
-19.9561
0
VERTEX
8
0
10
-4.4699
20
-20.0000
0
VERTEX
8
0
10
-4.2426
20
-20.2426
0
VERTEX
8
0
10
-3.9561
20
-20.5110
0
VERTEX
8
0
10
-3.6526
20
-20.7601
0
VERTEX
8
0
10
-3.3334
20
-20.9888
0
VERTEX
8
0
10
-3.0000
20
-21.1962
0
VERTEX
8
0
10
-2.6537
20
-21.3812
0
VERTEX
8
0
10
-2.2961
20
-21.5433
0
VERTEX
8
0
10
-1.9286
20
-21.6816
0
VERTEX
8
0
10
-1.5529
20
-21.7956
0
VERTEX
8
0
10
-1.1705
20
-21.8847
0
VERTEX
8
0
10
-0.7832
20
-21.9487
0
VERTEX
8
0
10
-0.3924
20
-21.9872
0
VERTEX
8
0
10
-0.0000
20
-22.0000
0
VERTEX
8
0
10
0.3924
20
-21.9872
0
VERTEX
8
0
10
0.7832
20
-21.9487
0
VERTEX
8
0
10
1.1705
20
-21.8847
0
VERTEX
8
0
10
1.5529
20
-21.7956
0
VERTEX
8
0
10
1.9286
20
-21.6816
0
VERTEX
8
0
10
2.2961
20
-21.5433
0
VERTEX
8
0
10
2.6537
20
-21.3812
0
VERTEX
8
0
10
3.0000
20
-21.1962
0
VERTEX
8
0
10
3.3334
20
-20.9888
0
VERTEX
8
0
10
3.6526
20
-20.7601
0
VERTEX
8
0
10
3.9561
20
-20.5110
0
VERTEX
8
0
10
4.2426
20
-20.2426
0
VERTEX
8
0
10
4.4699
20
-20.0000
0
VERTEX
8
0
10
4.5110
20
-19.9561
0
VERTEX
8
0
10
4.7601
20
-19.6526
0
VERTEX
8
0
10
4.9888
20
-19.3334
0
VERTEX
8
0
10
5.1962
20
-19.0000
0
VERTEX
8
0
10
5.3812
20
-18.6537
0
VERTEX
8
0
10
5.5433
20
-18.2961
0
VERTEX
8
0
10
5.6816
20
-17.9286
0
VERTEX
8
0
10
5.7956
20
-17.5529
0
VERTEX
8
0
10
5.8847
20
-17.1705
0
VERTEX
8
0
10
5.9487
20
-16.7832
0
VERTEX
8
0
10
5.9872
20
-16.3924
0
VERTEX
8
0
10
6.0000
20
-16.0000
0
VERTEX
8
0
10
5.9872
20
-15.6076
0
VERTEX
8
0
10
5.9487
20
-15.2168
0
VERTEX
8
0
10
5.8847
20
-14.8295
0
VERTEX
8
0
10
5.7956
20
-14.4471
0
VERTEX
8
0
10
5.6816
20
-14.0714
0
VERTEX
8
0
10
5.5433
20
-13.7039
0
VERTEX
8
0
10
5.3812
20
-13.3463
0
VERTEX
8
0
10
5.1962
20
-13.0000
0
VERTEX
8
0
10
4.9888
20
-12.6666
0
VERTEX
8
0
10
4.7601
20
-12.3474
0
SEQEND
0
POLYLINE
8
0
66
1
70
1
0
VERTEX
8
0
10
21.3000
20
-6.0000
0
VERTEX
8
0
10
21.3000
20
-10.0000
0
VERTEX
8
0
10
24.3000
20
-10.0000
0
VERTEX
8
0
10
24.3000
20
-20.0000
0
VERTEX
8
0
10
21.3000
20
-20.0000
0
VERTEX
8
0
10
21.2544
20
-20.5232
0
VERTEX
8
0
10
21.1178
20
-21.0442
0
VERTEX
8
0
10
20.8907
20
-21.5607
0
VERTEX
8
0
10
20.5742
20
-22.0706
0
VERTEX
8
0
10
20.1696
20
-22.5715
0
VERTEX
8
0
10
19.6786
20
-23.0615
0
VERTEX
8
0
10
19.1034
20
-23.5383
0
VERTEX
8
0
10
18.4463
20
-24.0000
0
VERTEX
8
0
10
17.7103
20
-24.4446
0
VERTEX
8
0
10
16.8984
20
-24.8701
0
VERTEX
8
0
10
16.0142
20
-25.2748
0
VERTEX
8
0
10
15.0614
20
-25.6569
0
VERTEX
8
0
10
14.0441
20
-26.0147
0
VERTEX
8
0
10
12.9666
20
-26.3468
0
VERTEX
8
0
10
11.8336
20
-26.6518
0
VERTEX
8
0
10
10.6500
20
-26.9282
0
VERTEX
8
0
10
9.4207
20
-27.1750
0
VERTEX
8
0
10
8.1512
20
-27.3910
0
VERTEX
8
0
10
6.8467
20
-27.5754
0
VERTEX
8
0
10
5.5128
20
-27.7274
0
VERTEX
8
0
10
4.1554
20
-27.8463
0
VERTEX
8
0
10
2.7802
20
-27.9316
0
VERTEX
8
0
10
1.3931
20
-27.9829
0
VERTEX
8
0
10
-0.0000
20
-28.0000
0
VERTEX
8
0
10
-1.3931
20
-27.9829
0
VERTEX
8
0
10
-2.7802
20
-27.9316
0
VERTEX
8
0
10
-4.1554
20
-27.8463
0
VERTEX
8
0
10
-5.5128
20
-27.7274
0
VERTEX
8
0
10
-6.8467
20
-27.5754
0
VERTEX
8
0
10
-8.1512
20
-27.3910
0
VERTEX
8
0
10
-9.4207
20
-27.1750
0
VERTEX
8
0
10
-10.6500
20
-26.9282
0
VERTEX
8
0
10
-11.8336
20
-26.6518
0
VERTEX
8
0
10
-12.9666
20
-26.3468
0
VERTEX
8
0
10
-14.0441
20
-26.0147
0
VERTEX
8
0
10
-15.0614
20
-25.6569
0
VERTEX
8
0
10
-16.0142
20
-25.2748
0
VERTEX
8
0
10
-16.8984
20
-24.8701
0
VERTEX
8
0
10
-17.7103
20
-24.4446
0
VERTEX
8
0
10
-18.4463
20
-24.0000
0
VERTEX
8
0
10
-19.1034
20
-23.5383
0
VERTEX
8
0
10
-19.6786
20
-23.0615
0
VERTEX
8
0
10
-20.1696
20
-22.5715
0
VERTEX
8
0
10
-20.5742
20
-22.0706
0
VERTEX
8
0
10
-20.8907
20
-21.5607
0
VERTEX
8
0
10
-21.1178
20
-21.0442
0
VERTEX
8
0
10
-21.2544
20
-20.5232
0
VERTEX
8
0
10
-21.3000
20
-20.0000
0
VERTEX
8
0
10
-24.3000
20
-20.0000
0
VERTEX
8
0
10
-24.3000
20
-10.0000
0
VERTEX
8
0
10
-21.3000
20
-10.0000
0
VERTEX
8
0
10
-21.3000
20
-6.0000
0
SEQEND
0
ENDSEC
0
EOF
