0
SECTION
2
HEADER
9
$ACADVER
1
AC1009
9
$INSUNITS
70
4
0
ENDSEC
0
SECTION
2
ENTITIES
0
POLYLINE
8
0
66
1
70
1
0
VERTEX
8
0
10
11.0000
20
0.0000
0
VERTEX
8
0
10
10.9764
20
-0.7194
0
VERTEX
8
0
10
10.9059
20
-1.4358
0
VERTEX
8
0
10
10.7886
20
-2.1460
0
VERTEX
8
0
10
10.6252
20
-2.8470
0
VERTEX
8
0
10
10.4162
20
-3.5358
0
VERTEX
8
0
10
10.1627
20
-4.2095
0
VERTEX
8
0
10
9.8656
20
-4.8652
0
VERTEX
8
0
10
9.5263
20
-5.5000
0
VERTEX
8
0
10
9.1462
20
-6.1113
0
VERTEX
8
0
10
8.7269
20
-6.6964
0
VERTEX
8
0
10
8.2702
20
-7.2528
0
VERTEX
8
0
10
7.7782
20
-7.7782
0
VERTEX
8
0
10
7.2528
20
-8.2702
0
VERTEX
8
0
10
6.6964
20
-8.7269
0
VERTEX
8
0
10
6.1113
20
-9.1462
0
VERTEX
8
0
10
5.5000
20
-9.5263
0
VERTEX
8
0
10
4.8652
20
-9.8656
0
VERTEX
8
0
10
4.2095
20
-10.1627
0
VERTEX
8
0
10
3.5358
20
-10.4162
0
VERTEX
8
0
10
2.8470
20
-10.6252
0
VERTEX
8
0
10
2.1460
20
-10.7886
0
VERTEX
8
0
10
1.4358
20
-10.9059
0
VERTEX
8
0
10
0.7194
20
-10.9764
0
VERTEX
8
0
10
-0.0000
20
-11.0000
0
VERTEX
8
0
10
-0.7194
20
-10.9764
0
VERTEX
8
0
10
-1.4358
20
-10.9059
0
VERTEX
8
0
10
-2.1460
20
-10.7886
0
VERTEX
8
0
10
-2.8470
20
-10.6252
0
VERTEX
8
0
10
-3.5358
20
-10.4162
0
VERTEX
8
0
10
-4.2095
20
-10.1627
0
VERTEX
8
0
10
-4.8652
20
-9.8656
0
VERTEX
8
0
10
-5.5000
20
-9.5263
0
VERTEX
8
0
10
-6.1113
20
-9.1462
0
VERTEX
8
0
10
-6.6964
20
-8.7269
0
VERTEX
8
0
10
-7.2528
20
-8.2702
0
VERTEX
8
0
10
-7.7782
20
-7.7782
0
VERTEX
8
0
10
-8.2702
20
-7.2528
0
VERTEX
8
0
10
-8.7269
20
-6.6964
0
VERTEX
8
0
10
-9.1462
20
-6.1113
0
VERTEX
8
0
10
-9.5263
20
-5.5000
0
VERTEX
8
0
10
-9.8656
20
-4.8652
0
VERTEX
8
0
10
-10.1627
20
-4.2095
0
VERTEX
8
0
10
-10.4162
20
-3.5358
0
VERTEX
8
0
10
-10.6252
20
-2.8470
0
VERTEX
8
0
10
-10.7886
20
-2.1460
0
VERTEX
8
0
10
-10.9059
20
-1.4358
0
VERTEX
8
0
10
-10.9764
20
-0.7194
0
VERTEX
8
0
10
-11.0000
20
0.0000
0
VERTEX
8
0
10
-10.9764
20
0.7194
0
VERTEX
8
0
10
-10.9059
20
1.4358
0
VERTEX
8
0
10
-10.7886
20
2.1460
0
VERTEX
8
0
10
-10.6252
20
2.8470
0
VERTEX
8
0
10
-10.4162
20
3.5358
0
VERTEX
8
0
10
-10.1627
20
4.2095
0
VERTEX
8
0
10
-9.8656
20
4.8652
0
VERTEX
8
0
10
-9.5263
20
5.5000
0
VERTEX
8
0
10
-9.1462
20
6.1113
0
VERTEX
8
0
10
-8.7269
20
6.6964
0
VERTEX
8
0
10
-8.2702
20
7.2528
0
VERTEX
8
0
10
-7.7782
20
7.7782
0
VERTEX
8
0
10
-7.2528
20
8.2702
0
VERTEX
8
0
10
-6.6964
20
8.7269
0
VERTEX
8
0
10
-6.1113
20
9.1462
0
VERTEX
8
0
10
-5.5000
20
9.5263
0
VERTEX
8
0
10
-4.8652
20
9.8656
0
VERTEX
8
0
10
-4.2095
20
10.1627
0
VERTEX
8
0
10
-3.5358
20
10.4162
0
VERTEX
8
0
10
-2.8470
20
10.6252
0
VERTEX
8
0
10
-2.1460
20
10.7886
0
VERTEX
8
0
10
-1.4358
20
10.9059
0
VERTEX
8
0
10
-0.7194
20
10.9764
0
VERTEX
8
0
10
0.0000
20
11.0000
0
VERTEX
8
0
10
0.7194
20
10.9764
0
VERTEX
8
0
10
1.4358
20
10.9059
0
VERTEX
8
0
10
2.1460
20
10.7886
0
VERTEX
8
0
10
2.8470
20
10.6252
0
VERTEX
8
0
10
3.5358
20
10.4162
0
VERTEX
8
0
10
4.2095
20
10.1627
0
VERTEX
8
0
10
4.8652
20
9.8656
0
VERTEX
8
0
10
5.5000
20
9.5263
0
VERTEX
8
0
10
6.1113
20
9.1462
0
VERTEX
8
0
10
6.6964
20
8.7269
0
VERTEX
8
0
10
7.2528
20
8.2702
0
VERTEX
8
0
10
7.7782
20
7.7782
0
VERTEX
8
0
10
8.2702
20
7.2528
0
VERTEX
8
0
10
8.7269
20
6.6964
0
VERTEX
8
0
10
9.1462
20
6.1113
0
VERTEX
8
0
10
9.5263
20
5.5000
0
VERTEX
8
0
10
9.8656
20
4.8652
0
VERTEX
8
0
10
10.1627
20
4.2095
0
VERTEX
8
0
10
10.4162
20
3.5358
0
VERTEX
8
0
10
10.6252
20
2.8470
0
VERTEX
8
0
10
10.7886
20
2.1460
0
VERTEX
8
0
10
10.9059
20
1.4358
0
VERTEX
8
0
10
10.9764
20
0.7194
0
SEQEND
0
POLYLINE
8
0
66
1
70
1
0
VERTEX
8
0
10
-8.2822
20
0.5428
0
VERTEX
8
0
10
-8.2290
20
1.0834
0
VERTEX
8
0
10
-8.1405
20
1.6192
0
VERTEX
8
0
10
-8.0172
20
2.1482
0
VERTEX
8
0
10
-7.8595
20
2.6679
0
VERTEX
8
0
10
-7.6682
20
3.1763
0
VERTEX
8
0
10
-7.4440
20
3.6710
0
VERTEX
8
0
10
-7.1880
20
4.1500
0
VERTEX
8
0
10
-6.9012
20
4.6112
0
VERTEX
8
0
10
-6.5848
20
5.0527
0
VERTEX
8
0
10
-6.2403
20
5.4726
0
VERTEX
8
0
10
-5.8690
20
5.8690
0
VERTEX
8
0
10
-5.4726
20
6.2403
0
VERTEX
8
0
10
-5.0527
20
6.5848
0
VERTEX
8
0
10
-4.6112
20
6.9012
0
VERTEX
8
0
10
-4.1500
20
7.1880
0
VERTEX
8
0
10
-3.6710
20
7.4440
0
VERTEX
8
0
10
-3.1763
20
7.6682
0
VERTEX
8
0
10
-2.6679
20
7.8595
0
VERTEX
8
0
10
-2.1482
20
8.0172
0
VERTEX
8
0
10
-1.6192
20
8.1405
0
VERTEX
8
0
10
-1.0834
20
8.2290
0
VERTEX
8
0
10
-0.5428
20
8.2822
0
VERTEX
8
0
10
0.0000
20
8.3000
0
VERTEX
8
0
10
0.5428
20
8.2822
0
VERTEX
8
0
10
1.0834
20
8.2290
0
VERTEX
8
0
10
1.6192
20
8.1405
0
VERTEX
8
0
10
2.1482
20
8.0172
0
VERTEX
8
0
10
2.6679
20
7.8595
0
VERTEX
8
0
10
3.1763
20
7.6682
0
VERTEX
8
0
10
3.6710
20
7.4440
0
VERTEX
8
0
10
4.1500
20
7.1880
0
VERTEX
8
0
10
4.6112
20
6.9012
0
VERTEX
8
0
10
5.0527
20
6.5848
0
VERTEX
8
0
10
5.4726
20
6.2403
0
VERTEX
8
0
10
5.8690
20
5.8690
0
VERTEX
8
0
10
6.2403
20
5.4726
0
VERTEX
8
0
10
6.5848
20
5.0527
0
VERTEX
8
0
10
6.9012
20
4.6112
0
VERTEX
8
0
10
7.1880
20
4.1500
0
VERTEX
8
0
10
7.4440
20
3.6710
0
VERTEX
8
0
10
7.6682
20
3.1763
0
VERTEX
8
0
10
7.8595
20
2.6679
0
VERTEX
8
0
10
8.0172
20
2.1482
0
VERTEX
8
0
10
8.1405
20
1.6192
0
VERTEX
8
0
10
8.2290
20
1.0834
0
VERTEX
8
0
10
8.2822
20
0.5428
0
VERTEX
8
0
10
8.3000
20
0.0000
0
VERTEX
8
0
10
8.2822
20
-0.5428
0
VERTEX
8
0
10
8.2290
20
-1.0834
0
VERTEX
8
0
10
8.1405
20
-1.6192
0
VERTEX
8
0
10
8.0172
20
-2.1482
0
VERTEX
8
0
10
7.8595
20
-2.6679
0
VERTEX
8
0
10
7.6682
20
-3.1763
0
VERTEX
8
0
10
7.4440
20
-3.6710
0
VERTEX
8
0
10
7.1880
20
-4.1500
0
VERTEX
8
0
10
6.9012
20
-4.6112
0
VERTEX
8
0
10
6.5848
20
-5.0527
0
VERTEX
8
0
10
6.2403
20
-5.4726
0
VERTEX
8
0
10
5.8690
20
-5.8690
0
VERTEX
8
0
10
5.4726
20
-6.2403
0
VERTEX
8
0
10
5.0527
20
-6.5848
0
VERTEX
8
0
10
4.6112
20
-6.9012
0
VERTEX
8
0
10
4.1500
20
-7.1880
0
VERTEX
8
0
10
3.6710
20
-7.4440
0
VERTEX
8
0
10
3.1763
20
-7.6682
0
VERTEX
8
0
10
2.6679
20
-7.8595
0
VERTEX
8
0
10
2.1482
20
-8.0172
0
VERTEX
8
0
10
1.6192
20
-8.1405
0
VERTEX
8
0
10
1.0834
20
-8.2290
0
VERTEX
8
0
10
0.5428
20
-8.2822
0
VERTEX
8
0
10
-0.0000
20
-8.3000
0
VERTEX
8
0
10
-0.5428
20
-8.2822
0
VERTEX
8
0
10
-1.0834
20
-8.2290
0
VERTEX
8
0
10
-1.6192
20
-8.1405
0
VERTEX
8
0
10
-2.1482
20
-8.0172
0
VERTEX
8
0
10
-2.6679
20
-7.8595
0
VERTEX
8
0
10
-3.1763
20
-7.6682
0
VERTEX
8
0
10
-3.6710
20
-7.4440
0
VERTEX
8
0
10
-4.1500
20
-7.1880
0
VERTEX
8
0
10
-4.6112
20
-6.9012
0
VERTEX
8
0
10
-5.0527
20
-6.5848
0
VERTEX
8
0
10
-5.4726
20
-6.2403
0
VERTEX
8
0
10
-5.8690
20
-5.8690
0
VERTEX
8
0
10
-6.2403
20
-5.4726
0
VERTEX
8
0
10
-6.5848
20
-5.0527
0
VERTEX
8
0
10
-6.9012
20
-4.6112
0
VERTEX
8
0
10
-7.1880
20
-4.1500
0
VERTEX
8
0
10
-7.4440
20
-3.6710
0
VERTEX
8
0
10
-7.6682
20
-3.1763
0
VERTEX
8
0
10
-7.8595
20
-2.6679
0
VERTEX
8
0
10
-8.0172
20
-2.1482
0
VERTEX
8
0
10
-8.1405
20
-1.6192
0
VERTEX
8
0
10
-8.2290
20
-1.0834
0
VERTEX
8
0
10
-8.2822
20
-0.5428
0
VERTEX
8
0
10
-8.3000
20
0.0000
0
SEQEND
0
ENDSEC
0
EOF
