0
SECTION
2
HEADER
9
$ACADVER
1
AC1009
9
$INSUNITS
70
4
0
ENDSEC
0
SECTION
2
ENTITIES
0
POLYLINE
8
0
66
1
70
1
0
VERTEX
8
0
10
4.0463
20
36.7348
0
VERTEX
8
0
10
5.0648
20
36.5666
0
VERTEX
8
0
10
7.2012
20
38.0077
0
VERTEX
8
0
10
9.0494
20
38.5462
0
VERTEX
8
0
10
10.9019
20
39.0783
0
VERTEX
8
0
10
12.7589
20
39.6036
0
VERTEX
8
0
10
14.6208
20
40.1217
0
VERTEX
8
0
10
16.4879
20
40.6322
0
VERTEX
8
0
10
18.3605
20
41.1345
0
VERTEX
8
0
10
20.2391
20
41.6280
0
VERTEX
8
0
10
22.1240
20
42.1120
0
VERTEX
8
0
10
24.0158
20
42.5858
0
VERTEX
8
0
10
25.9152
20
43.0484
0
VERTEX
8
0
10
27.8228
20
43.4988
0
VERTEX
8
0
10
29.7394
20
43.9358
0
VERTEX
8
0
10
31.6661
20
44.3579
0
VERTEX
8
0
10
33.6041
20
44.7632
0
VERTEX
8
0
10
35.5548
20
45.1497
0
VERTEX
8
0
10
37.5202
20
45.5145
0
VERTEX
8
0
10
39.5026
20
45.8539
0
VERTEX
8
0
10
41.5054
20
46.1632
0
VERTEX
8
0
10
43.5331
20
46.4356
0
VERTEX
8
0
10
45.5924
20
46.6610
0
VERTEX
8
0
10
47.6943
20
46.8234
0
VERTEX
8
0
10
49.8588
20
46.8929
0
VERTEX
8
0
10
52.1338
20
46.7987
0
VERTEX
8
0
10
52.8077
20
46.7175
0
VERTEX
8
0
10
55.3940
20
42.8832
0
VERTEX
8
0
10
55.2903
20
42.1189
0
VERTEX
8
0
10
54.6742
20
39.7538
0
VERTEX
8
0
10
53.8666
20
37.6725
0
VERTEX
8
0
10
52.9576
20
35.7416
0
VERTEX
8
0
10
51.9828
20
33.9083
0
VERTEX
8
0
10
50.9608
20
32.1451
0
VERTEX
8
0
10
49.9025
20
30.4355
0
VERTEX
8
0
10
48.8154
20
28.7687
0
VERTEX
8
0
10
47.7045
20
27.1370
0
VERTEX
8
0
10
46.5737
20
25.5351
0
VERTEX
8
0
10
45.4256
20
23.9586
0
VERTEX
8
0
10
44.2627
20
22.4042
0
VERTEX
8
0
10
43.0866
20
20.8693
0
VERTEX
8
0
10
41.8988
20
19.3517
0
VERTEX
8
0
10
40.7004
20
17.8498
0
VERTEX
8
0
10
39.4926
20
16.3620
0
VERTEX
8
0
10
38.2761
20
14.8870
0
VERTEX
8
0
10
37.0517
20
13.4237
0
VERTEX
8
0
10
35.8199
20
11.9713
0
VERTEX
8
0
10
34.5814
20
10.5289
0
VERTEX
8
0
10
33.3367
20
9.0958
0
VERTEX
8
0
10
32.0861
20
7.6713
0
VERTEX
8
0
10
30.9859
20
6.4307
0
VERTEX
8
0
10
31.0000
20
6.0000
0
VERTEX
8
0
10
30.9336
20
3.9725
0
VERTEX
8
0
10
30.7348
20
1.9537
0
VERTEX
8
0
10
30.4043
20
-0.0478
0
VERTEX
8
0
10
29.9437
20
-2.0234
0
VERTEX
8
0
10
29.3548
20
-3.9646
0
VERTEX
8
0
10
28.6403
20
-5.8632
0
VERTEX
8
0
10
27.8031
20
-7.7109
0
VERTEX
8
0
10
26.8468
20
-9.5000
0
VERTEX
8
0
10
25.7756
20
-11.2227
0
VERTEX
8
0
10
24.5940
20
-12.8716
0
VERTEX
8
0
10
23.3070
20
-14.4397
0
VERTEX
8
0
10
22.2297
20
-15.5900
0
VERTEX
8
0
10
21.6506
20
-16.5000
0
VERTEX
8
0
10
20.7867
20
-17.6670
0
VERTEX
8
0
10
19.8338
20
-18.7840
0
VERTEX
8
0
10
18.7960
20
-19.8463
0
VERTEX
8
0
10
17.6777
20
-20.8492
0
VERTEX
8
0
10
16.4836
20
-21.7886
0
VERTEX
8
0
10
15.2190
20
-22.6604
0
VERTEX
8
0
10
13.8893
20
-23.4609
0
VERTEX
8
0
10
12.5000
20
-24.1865
0
VERTEX
8
0
10
11.0572
20
-24.8343
0
VERTEX
8
0
10
9.5671
20
-25.4015
0
VERTEX
8
0
10
8.0360
20
-25.8855
0
VERTEX
8
0
10
6.4705
20
-26.2844
0
VERTEX
8
0
10
4.8773
20
-26.5965
0
VERTEX
8
0
10
3.2632
20
-26.8203
0
VERTEX
8
0
10
1.6351
20
-26.9550
0
VERTEX
8
0
10
-0.0000
20
-27.0000
0
VERTEX
8
0
10
-1.6351
20
-26.9550
0
VERTEX
8
0
10
-3.2632
20
-26.8203
0
VERTEX
8
0
10
-4.8773
20
-26.5965
0
VERTEX
8
0
10
-6.4705
20
-26.2844
0
VERTEX
8
0
10
-8.0360
20
-25.8855
0
VERTEX
8
0
10
-9.5671
20
-25.4015
0
VERTEX
8
0
10
-11.0572
20
-24.8343
0
VERTEX
8
0
10
-12.5000
20
-24.1865
0
VERTEX
8
0
10
-13.8893
20
-23.4609
0
VERTEX
8
0
10
-15.2190
20
-22.6604
0
VERTEX
8
0
10
-16.4836
20
-21.7886
0
VERTEX
8
0
10
-17.6777
20
-20.8492
0
VERTEX
8
0
10
-18.7960
20
-19.8463
0
VERTEX
8
0
10
-19.8338
20
-18.7840
0
VERTEX
8
0
10
-20.7867
20
-17.6670
0
VERTEX
8
0
10
-21.6506
20
-16.5000
0
VERTEX
8
0
10
-22.2297
20
-15.5900
0
VERTEX
8
0
10
-23.3070
20
-14.4397
0
VERTEX
8
0
10
-24.5940
20
-12.8716
0
VERTEX
8
0
10
-25.7756
20
-11.2227
0
VERTEX
8
0
10
-26.8468
20
-9.5000
0
VERTEX
8
0
10
-27.8031
20
-7.7109
0
VERTEX
8
0
10
-28.6403
20
-5.8632
0
VERTEX
8
0
10
-29.3548
20
-3.9646
0
VERTEX
8
0
10
-29.9437
20
-2.0234
0
VERTEX
8
0
10
-30.4043
20
-0.0478
0
VERTEX
8
0
10
-30.7348
20
1.9537
0
VERTEX
8
0
10
-30.9336
20
3.9725
0
VERTEX
8
0
10
-31.0000
20
6.0000
0
VERTEX
8
0
10
-30.9859
20
6.4307
0
VERTEX
8
0
10
-32.0861
20
7.6713
0
VERTEX
8
0
10
-33.3367
20
9.0958
0
VERTEX
8
0
10
-34.5814
20
10.5289
0
VERTEX
8
0
10
-35.8199
20
11.9713
0
VERTEX
8
0
10
-37.0517
20
13.4237
0
VERTEX
8
0
10
-38.2761
20
14.8870
0
VERTEX
8
0
10
-39.4926
20
16.3620
0
VERTEX
8
0
10
-40.7004
20
17.8498
0
VERTEX
8
0
10
-41.8988
20
19.3517
0
VERTEX
8
0
10
-43.0866
20
20.8693
0
VERTEX
8
0
10
-44.2627
20
22.4042
0
VERTEX
8
0
10
-45.4256
20
23.9586
0
VERTEX
8
0
10
-46.5737
20
25.5351
0
VERTEX
8
0
10
-47.7045
20
27.1370
0
VERTEX
8
0
10
-48.8154
20
28.7687
0
VERTEX
8
0
10
-49.9025
20
30.4355
0
VERTEX
8
0
10
-50.9608
20
32.1451
0
VERTEX
8
0
10
-51.9828
20
33.9083
0
VERTEX
8
0
10
-52.9576
20
35.7416
0
VERTEX
8
0
10
-53.8666
20
37.6725
0
VERTEX
8
0
10
-54.6742
20
39.7538
0
VERTEX
8
0
10
-55.2903
20
42.1189
0
VERTEX
8
0
10
-55.3940
20
42.8832
0
VERTEX
8
0
10
-52.8077
20
46.7175
0
VERTEX
8
0
10
-52.1338
20
46.7987
0
VERTEX
8
0
10
-49.8588
20
46.8929
0
VERTEX
8
0
10
-47.6943
20
46.8234
0
VERTEX
8
0
10
-45.5924
20
46.6610
0
VERTEX
8
0
10
-43.5331
20
46.4356
0
VERTEX
8
0
10
-41.5054
20
46.1632
0
VERTEX
8
0
10
-39.5026
20
45.8539
0
VERTEX
8
0
10
-37.5202
20
45.5145
0
VERTEX
8
0
10
-35.5548
20
45.1497
0
VERTEX
8
0
10
-33.6041
20
44.7632
0
VERTEX
8
0
10
-31.6661
20
44.3579
0
VERTEX
8
0
10
-29.7394
20
43.9358
0
VERTEX
8
0
10
-27.8228
20
43.4988
0
VERTEX
8
0
10
-25.9152
20
43.0484
0
VERTEX
8
0
10
-24.0158
20
42.5858
0
VERTEX
8
0
10
-22.1240
20
42.1120
0
VERTEX
8
0
10
-20.2391
20
41.6280
0
VERTEX
8
0
10
-18.3605
20
41.1345
0
VERTEX
8
0
10
-16.4879
20
40.6322
0
VERTEX
8
0
10
-14.6208
20
40.1217
0
VERTEX
8
0
10
-12.7589
20
39.6036
0
VERTEX
8
0
10
-10.9019
20
39.0783
0
VERTEX
8
0
10
-9.0494
20
38.5462
0
VERTEX
8
0
10
-7.2012
20
38.0077
0
VERTEX
8
0
10
-5.0648
20
36.5666
0
VERTEX
8
0
10
-4.0463
20
36.7348
0
VERTEX
8
0
10
-2.0275
20
36.9336
0
VERTEX
8
0
10
0.0000
20
37.0000
0
VERTEX
8
0
10
2.0275
20
36.9336
0
SEQEND
0
POLYLINE
8
0
66
1
70
1
0
VERTEX
8
0
10
24.6500
20
10.8500
0
VERTEX
8
0
10
24.6500
20
21.1500
0
VERTEX
8
0
10
24.1817
20
21.1500
0
VERTEX
8
0
10
21.3500
20
21.1500
0
VERTEX
8
0
10
21.3500
20
10.8500
0
SEQEND
0
POLYLINE
8
0
66
1
70
1
0
VERTEX
8
0
10
11.1500
20
-22.1500
0
VERTEX
8
0
10
11.1500
20
-19.9986
0
VERTEX
8
0
10
11.1500
20
-18.8500
0
VERTEX
8
0
10
6.8500
20
-18.8500
0
VERTEX
8
0
10
6.8500
20
-22.1500
0
VERTEX
8
0
10
10.2900
20
-22.1500
0
SEQEND
0
POLYLINE
8
0
66
1
70
1
0
VERTEX
8
0
10
19.9012
20
-4.6112
0
VERTEX
8
0
10
19.9332
20
-4.5597
0
VERTEX
8
0
10
20.1880
20
-4.1500
0
VERTEX
8
0
10
20.4440
20
-3.6710
0
VERTEX
8
0
10
20.6682
20
-3.1763
0
VERTEX
8
0
10
20.8595
20
-2.6679
0
VERTEX
8
0
10
21.0172
20
-2.1482
0
VERTEX
8
0
10
21.1405
20
-1.6192
0
VERTEX
8
0
10
21.2290
20
-1.0834
0
VERTEX
8
0
10
21.2596
20
-0.7727
0
VERTEX
8
0
10
21.2822
20
-0.5428
0
VERTEX
8
0
10
21.3000
20
0.0000
0
VERTEX
8
0
10
21.2822
20
0.5428
0
VERTEX
8
0
10
21.2290
20
1.0834
0
VERTEX
8
0
10
21.1405
20
1.6192
0
VERTEX
8
0
10
21.0172
20
2.1482
0
VERTEX
8
0
10
20.8595
20
2.6679
0
VERTEX
8
0
10
20.6682
20
3.1763
0
VERTEX
8
0
10
20.4440
20
3.6710
0
VERTEX
8
0
10
20.1880
20
4.1500
0
VERTEX
8
0
10
19.9012
20
4.6112
0
VERTEX
8
0
10
19.5848
20
5.0527
0
VERTEX
8
0
10
19.2403
20
5.4726
0
VERTEX
8
0
10
18.8690
20
5.8690
0
VERTEX
8
0
10
18.4726
20
6.2403
0
VERTEX
8
0
10
18.0527
20
6.5848
0
VERTEX
8
0
10
17.6112
20
6.9012
0
VERTEX
8
0
10
17.1500
20
7.1880
0
VERTEX
8
0
10
16.6710
20
7.4440
0
VERTEX
8
0
10
16.1763
20
7.6682
0
VERTEX
8
0
10
15.6679
20
7.8595
0
VERTEX
8
0
10
15.1482
20
8.0172
0
VERTEX
8
0
10
14.6192
20
8.1405
0
VERTEX
8
0
10
14.0834
20
8.2290
0
VERTEX
8
0
10
13.5428
20
8.2822
0
VERTEX
8
0
10
13.0000
20
8.3000
0
VERTEX
8
0
10
12.4572
20
8.2822
0
VERTEX
8
0
10
11.9166
20
8.2290
0
VERTEX
8
0
10
11.3808
20
8.1405
0
VERTEX
8
0
10
10.8518
20
8.0172
0
VERTEX
8
0
10
10.3321
20
7.8595
0
VERTEX
8
0
10
9.8237
20
7.6682
0
VERTEX
8
0
10
9.3290
20
7.4440
0
VERTEX
8
0
10
8.8500
20
7.1880
0
VERTEX
8
0
10
8.3888
20
6.9012
0
VERTEX
8
0
10
7.9473
20
6.5848
0
VERTEX
8
0
10
7.5274
20
6.2403
0
VERTEX
8
0
10
7.1310
20
5.8690
0
VERTEX
8
0
10
6.7597
20
5.4726
0
VERTEX
8
0
10
6.4152
20
5.0527
0
VERTEX
8
0
10
6.0988
20
4.6112
0
VERTEX
8
0
10
5.8120
20
4.1500
0
VERTEX
8
0
10
5.5560
20
3.6710
0
VERTEX
8
0
10
5.3318
20
3.1763
0
VERTEX
8
0
10
5.1405
20
2.6679
0
VERTEX
8
0
10
4.9828
20
2.1482
0
VERTEX
8
0
10
4.8595
20
1.6192
0
VERTEX
8
0
10
4.7710
20
1.0834
0
VERTEX
8
0
10
4.7178
20
0.5428
0
VERTEX
8
0
10
4.7000
20
0.0000
0
VERTEX
8
0
10
4.7178
20
-0.5428
0
VERTEX
8
0
10
4.7710
20
-1.0834
0
VERTEX
8
0
10
4.8595
20
-1.6192
0
VERTEX
8
0
10
4.9828
20
-2.1482
0
VERTEX
8
0
10
5.1405
20
-2.6679
0
VERTEX
8
0
10
5.3318
20
-3.1763
0
VERTEX
8
0
10
5.5560
20
-3.6710
0
VERTEX
8
0
10
5.8120
20
-4.1500
0
VERTEX
8
0
10
6.0988
20
-4.6112
0
VERTEX
8
0
10
6.4152
20
-5.0527
0
VERTEX
8
0
10
6.7597
20
-5.4726
0
VERTEX
8
0
10
7.1310
20
-5.8690
0
VERTEX
8
0
10
7.5274
20
-6.2403
0
VERTEX
8
0
10
7.9473
20
-6.5848
0
VERTEX
8
0
10
8.3888
20
-6.9012
0
VERTEX
8
0
10
8.8500
20
-7.1880
0
VERTEX
8
0
10
9.3290
20
-7.4440
0
VERTEX
8
0
10
9.8237
20
-7.6682
0
VERTEX
8
0
10
10.3321
20
-7.8595
0
VERTEX
8
0
10
10.8518
20
-8.0172
0
VERTEX
8
0
10
11.3808
20
-8.1405
0
VERTEX
8
0
10
11.9166
20
-8.2290
0
VERTEX
8
0
10
12.4572
20
-8.2822
0
VERTEX
8
0
10
13.0000
20
-8.3000
0
VERTEX
8
0
10
13.5428
20
-8.2822
0
VERTEX
8
0
10
14.0834
20
-8.2290
0
VERTEX
8
0
10
14.6192
20
-8.1405
0
VERTEX
8
0
10
15.1482
20
-8.0172
0
VERTEX
8
0
10
15.6679
20
-7.8595
0
VERTEX
8
0
10
16.1763
20
-7.6682
0
VERTEX
8
0
10
16.6710
20
-7.4440
0
VERTEX
8
0
10
17.1500
20
-7.1880
0
VERTEX
8
0
10
17.6112
20
-6.9012
0
VERTEX
8
0
10
18.0527
20
-6.5848
0
VERTEX
8
0
10
18.4726
20
-6.2403
0
VERTEX
8
0
10
18.8690
20
-5.8690
0
VERTEX
8
0
10
19.2403
20
-5.4726
0
VERTEX
8
0
10
19.5848
20
-5.0527
0
SEQEND
0
POLYLINE
8
0
66
1
70
1
0
VERTEX
8
0
10
13.1500
20
-15.1500
0
VERTEX
8
0
10
13.1500
20
-11.8500
0
VERTEX
8
0
10
7.3100
20
-11.8500
0
VERTEX
8
0
10
5.8500
20
-11.8500
0
VERTEX
8
0
10
5.8500
20
-15.1500
0
SEQEND
0
POLYLINE
8
0
66
1
70
1
0
VERTEX
8
0
10
1.6500
20
-6.1500
0
VERTEX
8
0
10
1.6500
20
-0.8500
0
VERTEX
8
0
10
-1.6500
20
-0.8500
0
VERTEX
8
0
10
-1.6500
20
-6.1500
0
SEQEND
0
POLYLINE
8
0
66
1
70
1
0
VERTEX
8
0
10
-1.6500
20
2.8500
0
VERTEX
8
0
10
-1.6500
20
8.1500
0
VERTEX
8
0
10
1.6500
20
8.1500
0
VERTEX
8
0
10
1.6500
20
2.8500
0
SEQEND
0
POLYLINE
8
0
66
1
70
1
0
VERTEX
8
0
10
-15.1482
20
8.0172
0
VERTEX
8
0
10
-15.4062
20
7.9389
0
VERTEX
8
0
10
-15.6679
20
7.8595
0
VERTEX
8
0
10
-16.1763
20
7.6682
0
VERTEX
8
0
10
-16.5398
20
7.5035
0
VERTEX
8
0
10
-16.6710
20
7.4440
0
VERTEX
8
0
10
-17.1500
20
7.1880
0
VERTEX
8
0
10
-17.6112
20
6.9012
0
VERTEX
8
0
10
-18.0527
20
6.5848
0
VERTEX
8
0
10
-18.4726
20
6.2403
0
VERTEX
8
0
10
-18.8690
20
5.8690
0
VERTEX
8
0
10
-19.2403
20
5.4726
0
VERTEX
8
0
10
-19.5848
20
5.0527
0
VERTEX
8
0
10
-19.9012
20
4.6112
0
VERTEX
8
0
10
-20.1880
20
4.1500
0
VERTEX
8
0
10
-20.4440
20
3.6710
0
VERTEX
8
0
10
-20.6682
20
3.1763
0
VERTEX
8
0
10
-20.8595
20
2.6679
0
VERTEX
8
0
10
-21.0172
20
2.1482
0
VERTEX
8
0
10
-21.1405
20
1.6192
0
VERTEX
8
0
10
-21.2290
20
1.0834
0
VERTEX
8
0
10
-21.2822
20
0.5428
0
VERTEX
8
0
10
-21.3000
20
0.0000
0
VERTEX
8
0
10
-21.2822
20
-0.5428
0
VERTEX
8
0
10
-21.2290
20
-1.0834
0
VERTEX
8
0
10
-21.1405
20
-1.6192
0
VERTEX
8
0
10
-21.0172
20
-2.1482
0
VERTEX
8
0
10
-20.8595
20
-2.6679
0
VERTEX
8
0
10
-20.6682
20
-3.1763
0
VERTEX
8
0
10
-20.4440
20
-3.6710
0
VERTEX
8
0
10
-20.1880
20
-4.1500
0
VERTEX
8
0
10
-19.9012
20
-4.6112
0
VERTEX
8
0
10
-19.5848
20
-5.0527
0
VERTEX
8
0
10
-19.2403
20
-5.4726
0
VERTEX
8
0
10
-18.8690
20
-5.8690
0
VERTEX
8
0
10
-18.4726
20
-6.2403
0
VERTEX
8
0
10
-18.0527
20
-6.5848
0
VERTEX
8
0
10
-17.6112
20
-6.9012
0
VERTEX
8
0
10
-17.1500
20
-7.1880
0
VERTEX
8
0
10
-16.6710
20
-7.4440
0
VERTEX
8
0
10
-16.1763
20
-7.6682
0
VERTEX
8
0
10
-15.6679
20
-7.8595
0
VERTEX
8
0
10
-15.1482
20
-8.0172
0
VERTEX
8
0
10
-14.6192
20
-8.1405
0
VERTEX
8
0
10
-14.0834
20
-8.2290
0
VERTEX
8
0
10
-13.5428
20
-8.2822
0
VERTEX
8
0
10
-13.1086
20
-8.2964
0
VERTEX
8
0
10
-13.0000
20
-8.3000
0
VERTEX
8
0
10
-12.4572
20
-8.2822
0
VERTEX
8
0
10
-11.9166
20
-8.2290
0
VERTEX
8
0
10
-11.3808
20
-8.1405
0
VERTEX
8
0
10
-10.8518
20
-8.0172
0
VERTEX
8
0
10
-10.3321
20
-7.8595
0
VERTEX
8
0
10
-9.8237
20
-7.6682
0
VERTEX
8
0
10
-9.3290
20
-7.4440
0
VERTEX
8
0
10
-8.8500
20
-7.1880
0
VERTEX
8
0
10
-8.3888
20
-6.9012
0
VERTEX
8
0
10
-7.9473
20
-6.5848
0
VERTEX
8
0
10
-7.5274
20
-6.2403
0
VERTEX
8
0
10
-7.1310
20
-5.8690
0
VERTEX
8
0
10
-6.7597
20
-5.4726
0
VERTEX
8
0
10
-6.4152
20
-5.0527
0
VERTEX
8
0
10
-6.0988
20
-4.6112
0
VERTEX
8
0
10
-5.8120
20
-4.1500
0
VERTEX
8
0
10
-5.5560
20
-3.6710
0
VERTEX
8
0
10
-5.3318
20
-3.1763
0
VERTEX
8
0
10
-5.1405
20
-2.6679
0
VERTEX
8
0
10
-4.9828
20
-2.1482
0
VERTEX
8
0
10
-4.8595
20
-1.6192
0
VERTEX
8
0
10
-4.7710
20
-1.0834
0
VERTEX
8
0
10
-4.7178
20
-0.5428
0
VERTEX
8
0
10
-4.7000
20
0.0000
0
VERTEX
8
0
10
-4.7178
20
0.5428
0
VERTEX
8
0
10
-4.7710
20
1.0834
0
VERTEX
8
0
10
-4.8595
20
1.6192
0
VERTEX
8
0
10
-4.9828
20
2.1482
0
VERTEX
8
0
10
-5.1405
20
2.6679
0
VERTEX
8
0
10
-5.3318
20
3.1763
0
VERTEX
8
0
10
-5.5560
20
3.6710
0
VERTEX
8
0
10
-5.8120
20
4.1500
0
VERTEX
8
0
10
-6.0988
20
4.6112
0
VERTEX
8
0
10
-6.4152
20
5.0527
0
VERTEX
8
0
10
-6.7597
20
5.4726
0
VERTEX
8
0
10
-7.1310
20
5.8690
0
VERTEX
8
0
10
-7.5274
20
6.2403
0
VERTEX
8
0
10
-7.9473
20
6.5848
0
VERTEX
8
0
10
-8.3888
20
6.9012
0
VERTEX
8
0
10
-8.8500
20
7.1880
0
VERTEX
8
0
10
-9.3290
20
7.4440
0
VERTEX
8
0
10
-9.8237
20
7.6682
0
VERTEX
8
0
10
-10.3321
20
7.8595
0
VERTEX
8
0
10
-10.8518
20
8.0172
0
VERTEX
8
0
10
-11.3808
20
8.1405
0
VERTEX
8
0
10
-11.9166
20
8.2290
0
VERTEX
8
0
10
-12.4572
20
8.2822
0
VERTEX
8
0
10
-13.0000
20
8.3000
0
VERTEX
8
0
10
-13.5428
20
8.2822
0
VERTEX
8
0
10
-14.0834
20
8.2290
0
VERTEX
8
0
10
-14.6192
20
8.1405
0
SEQEND
0
POLYLINE
8
0
66
1
70
1
0
VERTEX
8
0
10
-5.8500
20
-11.8500
0
VERTEX
8
0
10
-12.9671
20
-11.8500
0
VERTEX
8
0
10
-13.1500
20
-11.8500
0
VERTEX
8
0
10
-13.1500
20
-15.1500
0
VERTEX
8
0
10
-5.8500
20
-15.1500
0
SEQEND
0
POLYLINE
8
0
66
1
70
1
0
VERTEX
8
0
10
-11.1500
20
-22.1500
0
VERTEX
8
0
10
-10.7248
20
-22.1500
0
VERTEX
8
0
10
-6.8500
20
-22.1500
0
VERTEX
8
0
10
-6.8500
20
-20.5449
0
VERTEX
8
0
10
-6.8500
20
-18.8500
0
VERTEX
8
0
10
-11.1500
20
-18.8500
0
SEQEND
0
POLYLINE
8
0
66
1
70
1
0
VERTEX
8
0
10
-21.3500
20
21.1500
0
VERTEX
8
0
10
-23.9900
20
21.1500
0
VERTEX
8
0
10
-24.6500
20
21.1500
0
VERTEX
8
0
10
-24.6500
20
10.8500
0
VERTEX
8
0
10
-21.3500
20
10.8500
0
SEQEND
0
POLYLINE
8
0
66
1
70
1
0
VERTEX
8
0
10
29.4743
20
24.6577
0
VERTEX
8
0
10
21.9125
20
35.8684
0
VERTEX
8
0
10
22.9886
20
36.2402
0
VERTEX
8
0
10
24.0669
20
36.6087
0
VERTEX
8
0
10
25.1474
20
36.9739
0
VERTEX
8
0
10
26.2303
20
37.3355
0
VERTEX
8
0
10
27.3159
20
37.6933
0
VERTEX
8
0
10
28.4041
20
38.0469
0
VERTEX
8
0
10
29.4954
20
38.3962
0
VERTEX
8
0
10
30.5899
20
38.7407
0
VERTEX
8
0
10
31.6878
20
39.0801
0
VERTEX
8
0
10
32.7894
20
39.4140
0
VERTEX
8
0
10
33.8952
20
39.7417
0
VERTEX
8
0
10
35.0055
20
40.0627
0
VERTEX
8
0
10
36.1209
20
40.3763
0
VERTEX
8
0
10
37.2419
20
40.6815
0
VERTEX
8
0
10
38.3692
20
40.9772
0
VERTEX
8
0
10
39.5039
20
41.2621
0
VERTEX
8
0
10
40.6471
20
41.5343
0
VERTEX
8
0
10
41.8005
20
41.7915
0
VERTEX
8
0
10
42.9663
20
42.0302
0
VERTEX
8
0
10
44.1480
20
42.2455
0
VERTEX
8
0
10
45.3509
20
42.4292
0
VERTEX
8
0
10
46.5851
20
42.5664
0
VERTEX
8
0
10
47.8746
20
42.6218
0
VERTEX
8
0
10
48.2541
20
42.6100
0
VERTEX
8
0
10
49.5473
20
40.6928
0
VERTEX
8
0
10
49.4529
20
40.2820
0
VERTEX
8
0
10
48.9928
20
38.9969
0
VERTEX
8
0
10
48.4371
20
37.8537
0
VERTEX
8
0
10
47.8306
20
36.7858
0
VERTEX
8
0
10
47.1912
20
35.7666
0
VERTEX
8
0
10
46.5282
20
34.7824
0
VERTEX
8
0
10
45.8470
20
33.8251
0
VERTEX
8
0
10
45.1515
20
32.8892
0
VERTEX
8
0
10
44.4441
20
31.9709
0
VERTEX
8
0
10
43.7266
20
31.0674
0
VERTEX
8
0
10
43.0006
20
30.1766
0
VERTEX
8
0
10
42.2672
20
29.2969
0
VERTEX
8
0
10
41.5271
20
28.4269
0
VERTEX
8
0
10
40.7812
20
27.5656
0
VERTEX
8
0
10
40.0301
20
26.7121
0
VERTEX
8
0
10
39.2742
20
25.8657
0
VERTEX
8
0
10
38.5139
20
25.0257
0
VERTEX
8
0
10
37.7497
20
24.1916
0
VERTEX
8
0
10
36.9819
20
23.3628
0
VERTEX
8
0
10
36.2106
20
22.5391
0
VERTEX
8
0
10
35.4363
20
21.7200
0
VERTEX
8
0
10
34.6590
20
20.9053
0
VERTEX
8
0
10
33.8790
20
20.0946
0
VERTEX
8
0
10
33.0964
20
19.2876
0
VERTEX
8
0
10
30.9133
20
22.5242
0
SEQEND
0
POLYLINE
8
0
66
1
70
1
0
VERTEX
8
0
10
-33.0964
20
19.2876
0
VERTEX
8
0
10
-30.9133
20
22.5242
0
VERTEX
8
0
10
-29.4743
20
24.6577
0
VERTEX
8
0
10
-21.9125
20
35.8684
0
VERTEX
8
0
10
-22.9886
20
36.2402
0
VERTEX
8
0
10
-24.0669
20
36.6087
0
VERTEX
8
0
10
-25.1474
20
36.9739
0
VERTEX
8
0
10
-26.2303
20
37.3355
0
VERTEX
8
0
10
-27.3159
20
37.6933
0
VERTEX
8
0
10
-28.4041
20
38.0469
0
VERTEX
8
0
10
-29.4954
20
38.3962
0
VERTEX
8
0
10
-30.5899
20
38.7407
0
VERTEX
8
0
10
-31.6878
20
39.0801
0
VERTEX
8
0
10
-32.7894
20
39.4140
0
VERTEX
8
0
10
-33.8952
20
39.7417
0
VERTEX
8
0
10
-35.0055
20
40.0627
0
VERTEX
8
0
10
-36.1209
20
40.3763
0
VERTEX
8
0
10
-37.2419
20
40.6815
0
VERTEX
8
0
10
-38.3692
20
40.9772
0
VERTEX
8
0
10
-39.5039
20
41.2621
0
VERTEX
8
0
10
-40.6471
20
41.5343
0
VERTEX
8
0
10
-41.8005
20
41.7915
0
VERTEX
8
0
10
-42.9663
20
42.0302
0
VERTEX
8
0
10
-44.1480
20
42.2455
0
VERTEX
8
0
10
-45.3509
20
42.4292
0
VERTEX
8
0
10
-46.5851
20
42.5664
0
VERTEX
8
0
10
-47.8746
20
42.6218
0
VERTEX
8
0
10
-48.2541
20
42.6100
0
VERTEX
8
0
10
-49.5473
20
40.6928
0
VERTEX
8
0
10
-49.4529
20
40.2820
0
VERTEX
8
0
10
-48.9928
20
38.9969
0
VERTEX
8
0
10
-48.4371
20
37.8537
0
VERTEX
8
0
10
-47.8306
20
36.7858
0
VERTEX
8
0
10
-47.1912
20
35.7666
0
VERTEX
8
0
10
-46.5282
20
34.7824
0
VERTEX
8
0
10
-45.8470
20
33.8251
0
VERTEX
8
0
10
-45.1515
20
32.8892
0
VERTEX
8
0
10
-44.4441
20
31.9709
0
VERTEX
8
0
10
-43.7266
20
31.0674
0
VERTEX
8
0
10
-43.0006
20
30.1766
0
VERTEX
8
0
10
-42.2672
20
29.2969
0
VERTEX
8
0
10
-41.5271
20
28.4269
0
VERTEX
8
0
10
-40.7812
20
27.5656
0
VERTEX
8
0
10
-40.0301
20
26.7121
0
VERTEX
8
0
10
-39.2742
20
25.8657
0
VERTEX
8
0
10
-38.5139
20
25.0257
0
VERTEX
8
0
10
-37.7497
20
24.1916
0
VERTEX
8
0
10
-36.9819
20
23.3628
0
VERTEX
8
0
10
-36.2106
20
22.5391
0
VERTEX
8
0
10
-35.4363
20
21.7200
0
VERTEX
8
0
10
-34.6590
20
20.9053
0
VERTEX
8
0
10
-33.8790
20
20.0946
0
SEQEND
0
ENDSEC
0
EOF
