0
SECTION
2
HEADER
9
$ACADVER
1
AC1009
9
$INSUNITS
70
4
0
ENDSEC
0
SECTION
2
ENTITIES
0
POLYLINE
8
0
66
1
70
1
0
VERTEX
8
0
10
-17.0000
20
0.0000
0
VERTEX
8
0
10
-13.0000
20
0.0000
0
VERTEX
8
0
10
-13.0000
20
-2.8000
0
VERTEX
8
0
10
-6.0000
20
-2.8000
0
VERTEX
8
0
10
-6.0000
20
0.0000
0
VERTEX
8
0
10
6.0000
20
0.0000
0
VERTEX
8
0
10
6.0000
20
-2.8000
0
VERTEX
8
0
10
13.0000
20
-2.8000
0
VERTEX
8
0
10
13.0000
20
0.0000
0
VERTEX
8
0
10
17.0000
20
0.0000
0
VERTEX
8
0
10
16.9636
20
1.3735
0
VERTEX
8
0
10
16.8546
20
2.7411
0
VERTEX
8
0
10
16.6733
20
4.0969
0
VERTEX
8
0
10
16.4207
20
5.4352
0
VERTEX
8
0
10
16.0978
20
6.7502
0
VERTEX
8
0
10
15.7060
20
8.0364
0
VERTEX
8
0
10
15.2468
20
9.2881
0
VERTEX
8
0
10
14.7224
20
10.5000
0
VERTEX
8
0
10
14.1350
20
11.6670
0
VERTEX
8
0
10
13.4870
20
12.7840
0
VERTEX
8
0
10
12.7813
20
13.8463
0
VERTEX
8
0
10
12.0208
20
14.8492
0
VERTEX
8
0
10
11.2089
20
15.7886
0
VERTEX
8
0
10
10.3489
20
16.6604
0
VERTEX
8
0
10
9.4447
20
17.4609
0
VERTEX
8
0
10
8.5000
20
18.1865
0
VERTEX
8
0
10
7.5189
20
18.8343
0
VERTEX
8
0
10
6.5056
20
19.4015
0
VERTEX
8
0
10
5.4645
20
19.8855
0
VERTEX
8
0
10
4.3999
20
20.2844
0
VERTEX
8
0
10
3.3165
20
20.5965
0
VERTEX
8
0
10
2.2189
20
20.8203
0
VERTEX
8
0
10
1.1119
20
20.9550
0
VERTEX
8
0
10
0.0000
20
21.0000
0
VERTEX
8
0
10
-1.1119
20
20.9550
0
VERTEX
8
0
10
-2.2189
20
20.8203
0
VERTEX
8
0
10
-3.3165
20
20.5965
0
VERTEX
8
0
10
-4.3999
20
20.2844
0
VERTEX
8
0
10
-5.4645
20
19.8855
0
VERTEX
8
0
10
-6.5056
20
19.4015
0
VERTEX
8
0
10
-7.5189
20
18.8343
0
VERTEX
8
0
10
-8.5000
20
18.1865
0
VERTEX
8
0
10
-9.4447
20
17.4609
0
VERTEX
8
0
10
-10.3489
20
16.6604
0
VERTEX
8
0
10
-11.2089
20
15.7886
0
VERTEX
8
0
10
-12.0208
20
14.8492
0
VERTEX
8
0
10
-12.7813
20
13.8463
0
VERTEX
8
0
10
-13.4870
20
12.7840
0
VERTEX
8
0
10
-14.1350
20
11.6670
0
VERTEX
8
0
10
-14.7224
20
10.5000
0
VERTEX
8
0
10
-15.2468
20
9.2881
0
VERTEX
8
0
10
-15.7060
20
8.0364
0
VERTEX
8
0
10
-16.0978
20
6.7502
0
VERTEX
8
0
10
-16.4207
20
5.4352
0
VERTEX
8
0
10
-16.6733
20
4.0969
0
VERTEX
8
0
10
-16.8546
20
2.7411
0
VERTEX
8
0
10
-16.9636
20
1.3735
0
SEQEND
0
POLYLINE
8
0
66
1
70
1
0
VERTEX
8
0
10
-1.6500
20
3.8500
0
VERTEX
8
0
10
-1.6500
20
9.1500
0
VERTEX
8
0
10
1.6500
20
9.1500
0
VERTEX
8
0
10
1.6500
20
3.8500
0
SEQEND
0
POLYLINE
8
0
66
1
70
1
0
VERTEX
8
0
10
-1.6500
20
12.8500
0
VERTEX
8
0
10
1.6500
20
12.8500
0
VERTEX
8
0
10
1.6500
20
17.1500
0
VERTEX
8
0
10
-1.6500
20
17.1500
0
SEQEND
0
ENDSEC
0
EOF
