0
SECTION
2
HEADER
9
$ACADVER
1
AC1009
9
$INSUNITS
70
4
0
ENDSEC
0
SECTION
2
ENTITIES
0
POLYLINE
8
0
66
1
70
1
0
VERTEX
8
0
10
8.4273
20
-6.6747
0
VERTEX
8
0
10
8.4818
20
-6.0886
0
VERTEX
8
0
10
8.5000
20
-5.5000
0
VERTEX
8
0
10
8.4818
20
-4.9114
0
VERTEX
8
0
10
8.4273
20
-4.3253
0
VERTEX
8
0
10
8.3367
20
-3.7442
0
VERTEX
8
0
10
8.2104
20
-3.1706
0
VERTEX
8
0
10
8.0489
20
-2.6070
0
VERTEX
8
0
10
7.9042
20
-2.2000
0
VERTEX
8
0
10
-7.9042
20
-2.2000
0
VERTEX
8
0
10
-8.0489
20
-2.6070
0
VERTEX
8
0
10
-8.2104
20
-3.1706
0
VERTEX
8
0
10
-8.3367
20
-3.7442
0
VERTEX
8
0
10
-8.4273
20
-4.3253
0
VERTEX
8
0
10
-8.4818
20
-4.9114
0
VERTEX
8
0
10
-8.5000
20
-5.5000
0
VERTEX
8
0
10
-8.4818
20
-6.0886
0
VERTEX
8
0
10
-8.4273
20
-6.6747
0
VERTEX
8
0
10
-8.3367
20
-7.2558
0
VERTEX
8
0
10
-8.2104
20
-7.8294
0
VERTEX
8
0
10
-8.0489
20
-8.3930
0
VERTEX
8
0
10
-7.8530
20
-8.9442
0
VERTEX
8
0
10
-7.6234
20
-9.4806
0
VERTEX
8
0
10
-7.3612
20
-10.0000
0
VERTEX
8
0
10
-7.0675
20
-10.5001
0
VERTEX
8
0
10
-6.7435
20
-10.9789
0
VERTEX
8
0
10
-6.3906
20
-11.4341
0
VERTEX
8
0
10
-6.0104
20
-11.8640
0
VERTEX
8
0
10
-5.6044
20
-12.2666
0
VERTEX
8
0
10
-5.1745
20
-12.6402
0
VERTEX
8
0
10
-4.7223
20
-12.9832
0
VERTEX
8
0
10
-4.2500
20
-13.2942
0
VERTEX
8
0
10
-3.7595
20
-13.5719
0
VERTEX
8
0
10
-3.2528
20
-13.8149
0
VERTEX
8
0
10
-2.7322
20
-14.0224
0
VERTEX
8
0
10
-2.2000
20
-14.1933
0
VERTEX
8
0
10
-1.6583
20
-14.3271
0
VERTEX
8
0
10
-1.1095
20
-14.4230
0
VERTEX
8
0
10
-0.5559
20
-14.4807
0
VERTEX
8
0
10
-0.0000
20
-14.5000
0
VERTEX
8
0
10
0.5559
20
-14.4807
0
VERTEX
8
0
10
1.1095
20
-14.4230
0
VERTEX
8
0
10
1.6583
20
-14.3271
0
VERTEX
8
0
10
2.2000
20
-14.1933
0
VERTEX
8
0
10
2.7322
20
-14.0224
0
VERTEX
8
0
10
3.2528
20
-13.8149
0
VERTEX
8
0
10
3.7595
20
-13.5719
0
VERTEX
8
0
10
4.2500
20
-13.2942
0
VERTEX
8
0
10
4.7223
20
-12.9832
0
VERTEX
8
0
10
5.1745
20
-12.6402
0
VERTEX
8
0
10
5.6044
20
-12.2666
0
VERTEX
8
0
10
6.0104
20
-11.8640
0
VERTEX
8
0
10
6.3906
20
-11.4341
0
VERTEX
8
0
10
6.7435
20
-10.9789
0
VERTEX
8
0
10
7.0675
20
-10.5001
0
VERTEX
8
0
10
7.3612
20
-10.0000
0
VERTEX
8
0
10
7.6234
20
-9.4806
0
VERTEX
8
0
10
7.8530
20
-8.9442
0
VERTEX
8
0
10
8.0489
20
-8.3930
0
VERTEX
8
0
10
8.2104
20
-7.8294
0
VERTEX
8
0
10
8.3367
20
-7.2558
0
SEQEND
0
POLYLINE
8
0
66
1
70
1
0
VERTEX
8
0
10
-1.6500
20
-4.3500
0
VERTEX
8
0
10
-1.6500
20
-12.1500
0
VERTEX
8
0
10
1.6500
20
-12.1500
0
VERTEX
8
0
10
1.6500
20
-4.3500
0
SEQEND
0
ENDSEC
0
EOF
