0
SECTION
2
HEADER
9
$ACADVER
1
AC1009
9
$INSUNITS
70
4
0
ENDSEC
0
SECTION
2
ENTITIES
0
POLYLINE
8
0
66
1
70
1
0
VERTEX
8
0
10
-3.0000
20
10.3000
0
VERTEX
8
0
10
-4.9000
20
10.3000
0
VERTEX
8
0
10
-4.9000
20
-10.3000
0
VERTEX
8
0
10
-3.0000
20
-10.3000
0
VERTEX
8
0
10
-3.0000
20
-19.0000
0
VERTEX
8
0
10
-5.0000
20
-19.0000
0
VERTEX
8
0
10
-5.0000
20
-21.8000
0
VERTEX
8
0
10
-10.0000
20
-21.8000
0
VERTEX
8
0
10
-10.0000
20
-19.0000
0
VERTEX
8
0
10
-17.0000
20
-19.0000
0
VERTEX
8
0
10
-17.0000
20
-21.8000
0
VERTEX
8
0
10
-22.0000
20
-21.8000
0
VERTEX
8
0
10
-22.0000
20
-19.0000
0
VERTEX
8
0
10
-28.0882
20
-19.0000
0
VERTEX
8
0
10
-28.4448
20
-18.7867
0
VERTEX
8
0
10
-29.8278
20
-17.8338
0
VERTEX
8
0
10
-31.1430
20
-16.7960
0
VERTEX
8
0
10
-32.3848
20
-15.6777
0
VERTEX
8
0
10
-33.5478
20
-14.4836
0
VERTEX
8
0
10
-34.6272
20
-13.2190
0
VERTEX
8
0
10
-35.6182
20
-11.8893
0
VERTEX
8
0
10
-36.5167
20
-10.5000
0
VERTEX
8
0
10
-37.3187
20
-9.0572
0
VERTEX
8
0
10
-38.0209
20
-7.5671
0
VERTEX
8
0
10
-38.6202
20
-6.0360
0
VERTEX
8
0
10
-39.1141
20
-4.4705
0
VERTEX
8
0
10
-39.5004
20
-2.8773
0
VERTEX
8
0
10
-39.7776
20
-1.2632
0
VERTEX
8
0
10
-39.9443
20
0.3649
0
VERTEX
8
0
10
-40.0000
20
2.0000
0
VERTEX
8
0
10
-39.9443
20
3.6351
0
VERTEX
8
0
10
-39.7776
20
5.2632
0
VERTEX
8
0
10
-39.5004
20
6.8773
0
VERTEX
8
0
10
-39.1141
20
8.4705
0
VERTEX
8
0
10
-38.6202
20
10.0360
0
VERTEX
8
0
10
-38.0209
20
11.5671
0
VERTEX
8
0
10
-37.3187
20
13.0572
0
VERTEX
8
0
10
-36.5167
20
14.5000
0
VERTEX
8
0
10
-35.6182
20
15.8893
0
VERTEX
8
0
10
-34.6272
20
17.2190
0
VERTEX
8
0
10
-33.5478
20
18.4836
0
VERTEX
8
0
10
-32.3848
20
19.6777
0
VERTEX
8
0
10
-31.1430
20
20.7960
0
VERTEX
8
0
10
-29.8278
20
21.8338
0
VERTEX
8
0
10
-28.4448
20
22.7867
0
VERTEX
8
0
10
-27.0000
20
23.6506
0
VERTEX
8
0
10
-25.4995
20
24.4218
0
VERTEX
8
0
10
-23.9498
20
25.0970
0
VERTEX
8
0
10
-22.3574
20
25.6733
0
VERTEX
8
0
10
-20.7293
20
26.1481
0
VERTEX
8
0
10
-19.0723
20
26.5196
0
VERTEX
8
0
10
-17.3937
20
26.7861
0
VERTEX
8
0
10
-15.7005
20
26.9465
0
VERTEX
8
0
10
-14.0000
20
27.0000
0
VERTEX
8
0
10
-12.2995
20
26.9465
0
VERTEX
8
0
10
-10.6063
20
26.7861
0
VERTEX
8
0
10
-8.9277
20
26.5196
0
VERTEX
8
0
10
-7.2707
20
26.1481
0
VERTEX
8
0
10
-5.6426
20
25.6733
0
VERTEX
8
0
10
-4.0502
20
25.0970
0
VERTEX
8
0
10
-3.0000
20
24.6394
0
VERTEX
8
0
10
-3.0000
20
21.0000
0
VERTEX
8
0
10
-0.2000
20
21.0000
0
VERTEX
8
0
10
-0.2000
20
11.0000
0
VERTEX
8
0
10
-3.0000
20
11.0000
0
SEQEND
0
POLYLINE
8
0
66
1
70
1
0
VERTEX
8
0
10
-9.8500
20
21.1500
0
VERTEX
8
0
10
-9.8500
20
17.8500
0
VERTEX
8
0
10
-20.1500
20
17.8500
0
VERTEX
8
0
10
-20.1500
20
21.1500
0
VERTEX
8
0
10
-18.0900
20
21.1500
0
SEQEND
0
ENDSEC
0
EOF
