0
SECTION
2
HEADER
9
$ACADVER
1
AC1009
9
$INSUNITS
70
4
0
ENDSEC
0
SECTION
2
ENTITIES
0
POLYLINE
8
0
66
1
70
1
0
VERTEX
8
0
10
0.0000
20
-1.0000
0
VERTEX
8
0
10
0.0000
20
3.0000
0
VERTEX
8
0
10
-2.8000
20
3.0000
0
VERTEX
8
0
10
-2.8000
20
8.0000
0
VERTEX
8
0
10
0.0000
20
8.0000
0
VERTEX
8
0
10
0.0000
20
11.5000
0
VERTEX
8
0
10
2.0000
20
10.5000
0
VERTEX
8
0
10
4.0000
20
8.0000
0
VERTEX
8
0
10
6.0000
20
4.5000
0
VERTEX
8
0
10
8.0000
20
1.0000
0
VERTEX
8
0
10
10.5000
20
-1.5000
0
VERTEX
8
0
10
14.0000
20
-3.2000
0
VERTEX
8
0
10
20.0000
20
-4.5000
0
VERTEX
8
0
10
27.0000
20
-4.5000
0
VERTEX
8
0
10
27.6000
20
-5.5000
0
VERTEX
8
0
10
27.6000
20
-11.0000
0
VERTEX
8
0
10
27.0000
20
-12.0000
0
VERTEX
8
0
10
17.0000
20
-12.0000
0
VERTEX
8
0
10
17.0000
20
-14.8000
0
VERTEX
8
0
10
13.0000
20
-14.8000
0
VERTEX
8
0
10
13.0000
20
-12.0000
0
VERTEX
8
0
10
9.0000
20
-12.0000
0
VERTEX
8
0
10
9.0000
20
-14.8000
0
VERTEX
8
0
10
4.0000
20
-14.8000
0
VERTEX
8
0
10
4.0000
20
-12.0000
0
VERTEX
8
0
10
0.0000
20
-12.0000
0
VERTEX
8
0
10
0.0000
20
-6.0000
0
VERTEX
8
0
10
-2.8000
20
-6.0000
0
VERTEX
8
0
10
-2.8000
20
-1.0000
0
SEQEND
0
ENDSEC
0
EOF
